{"title":"The Wizards Return Alex vs. Alex 2013 DVDRip x264 AAC - ViZNU [P","uid":8746572,"size":276179982,"categoryP":"video","categoryS":"movies","magnet":"?xt=urn:btih:4ee618aaf1907a044566d7f3ac5c03d59ee334e6&amp;dn=The+Wizards+Return+Alex+vs.+Alex+2013+DVDRip+x264+AAC+-+ViZNU+%5BP&amp;tr=udp%3A%2F%2Ftracker.openbittorrent.com%3A80&amp;tr=udp%3A%2F%2Fopen.demonii.com%3A1337&amp;tr=udp%3A%2F%2Ftracker.coppersurfer.tk%3A6969&amp;tr=udp%3A%2F%2Fexodus.desync.com%3A6969","seeders":1,"leechers":0,"uploader":"ValidusVyto","files":-1,"time":1374934139,"description":"_______ Visit us at our Semi Public Bittorrent Community ________\n  &lt;a href=&quot;\nhttp://p2pdl.com&quot; rel=&quot;nofollow&quot; target=&quot;_NEW&quot;&gt;\nhttp://p2pdl.com&lt;/a&gt;  _____________________________ &lt;a href=&quot; http://p2pdl.com&quot; rel=&quot;nofollow&quot; target=&quot;_NEW&quot;&gt; http://p2pdl.com&lt;/a&gt;\n\n\n\nThe Wizards Return Alex vs. Alex 2013 DVDRip x264 AAC - ViZNU\n\nGenre: Adventure | Comedy | Drama\nPlot: The Russo family and friends are headed to Tuscany, Italy, \nto meet their long lost relatives... but when Alex tries to prove \nshe's more than a seemingly carefree young Wizard, she inadvertently \nconjures a spell that creates a Good Alex and an Evil Alex. When \nEvil Alex gets roped into a charming young wizard's foreboding \nplan to take over the world, Good Alex must find a way to save \nher family and humankind, which leads to a monumental battle \nbetween the two versions of herself - all atop the Tower of Pisa..\nDirector: Victor Gonzalez\nStars: Selena Gomez, Jake T. Austin, Jennifer Stone.\nRated: N/A\n\n\nIMDb: &lt;a href=&quot;\nhttp://www.imdb.com/title/tt2448374/&quot; rel=&quot;nofollow&quot; target=&quot;_NEW&quot;&gt;\nhttp://www.imdb.com/title/tt2448374/&lt;/a&gt;\n\nTrailer:\n\n\nGeneral\nFormat                         : MPEG-4\nFile size                      : 259 MiB\nDuration                       : 58mn 36s\nOverall bit rate mode          : Variable\nOverall bit rate               : 617 Kbps\n\nVideo\nFormat                         : AVC\nBit rate                       : 539 Kbps\nWidth                          : 720 pixels\nHeight                         : 400 pixels\nDisplay aspect ratio           : 16:9\nFrame rate mode                : Constant\nFrame rate                     : 23.976 fps\nBit depth                      : 10 bits\nStream size                    : 226 MiB (87%)\nWriting library                : x264 core 130 r2273 b3065e6\n\n\nAudio\nFormat                         : AAC\nBit rate                       : 75.0 Kbps\nChannel(s)                     : 2 channels\nChannel positions              : Front: L R\nSampling rate                  : 48.0 KHz / 24.0 KHz\nStream size                    : 31.4 MiB (12%)\n\n\nSubtitle                       : Yes (English)\n\nSource                         : DVD5 F0RFUN\n &lt;a href=&quot;\nhttp://ultraimg.com/images/Dwj3H.png&quot; rel=&quot;nofollow&quot; target=&quot;_NEW&quot;&gt;\nhttp://ultraimg.com/images/Dwj3H.png&lt;/a&gt; &lt;a href=&quot;\nhttp://ultraimg.com/images/zE10n.png&quot; rel=&quot;nofollow&quot; target=&quot;_NEW&quot;&gt;\nhttp://ultraimg.com/images/zE10n.png&lt;/a&gt; &lt;a href=&quot;\nhttp://ultraimg.com/images/Wdmyb.png&quot; rel=&quot;nofollow&quot; target=&quot;_NEW&quot;&gt;\nhttp://ultraimg.com/images/Wdmyb.png&lt;/a&gt; &lt;a href=&quot;\nhttp://ultraimg.com/images/FtPuv.png&quot; rel=&quot;nofollow&quot; target=&quot;_NEW&quot;&gt;\nhttp://ultraimg.com/images/FtPuv.png&lt;/a&gt; &lt;a href=&quot;\nhttp://ultraimg.com/images/YHO5K.png&quot; rel=&quot;nofollow&quot; target=&quot;_NEW&quot;&gt;\nhttp://ultraimg.com/images/YHO5K.png&lt;/a&gt;\n\n----------------------------------------------------------------------------------------------------\n\n\nEncoded using revolutionary 10bit encoding, which enables us to provide you more crispier \nand sharper images at small sizes, just make sure you follow our instructions without a fault.\nRecommend to you to use latest version of VLC player. Install K-Lite Codec Pack or shark007 codecs\nin case of any kind of problem in playback (For non-VLC Media Player users). Alternatively, install\nCore AVC codecs, the fastest decoder that there is coupled with Community Center Codec Pack and play\non Windows Media Player Classic. Check sample to be sure.\nEnjoy!\n\nEncoder Notes:Looking For Early Access To Anything You Can Provide DVDScr, R5, DVDR, BluRay, Direct\nAudio, Music Releases and Seedboxes. We require dedicated servers, so as to do more \nand fast releases of movies.\nIf You Got anything to offer please contact us at &quot;&lt;a class=&quot;__cf_email__&quot; href=&quot;/cdn-cgi/l/email-protection&quot; data-cfemail=&quot;abdbd9ccebc3ded8c385c8c4c6&quot;&gt;[email&amp;#160;protected]&lt;/a&gt;&lt;script cf-hash='f9e31' type=&quot;text/javascript&quot;&gt;\n/* &lt;![CDATA[ */!function(){try{var t=&quot;currentScript&quot;in document?document.currentScript:function(){for(var t=document.getElementsByTagName(&quot;script&quot;),e=t.length;e--;)if(t[e].getAttribute(&quot;cf-hash&quot;))return t[e]}();if(t&amp;&amp;t.previousSibling){var e,r,n,i,c=t.previousSibling,a=c.getAttribute(&quot;data-cfemail&quot;);if(a){for(e=&quot;&quot;,r=parseInt(a.substr(0,2),16),n=2;a.length-n;n+=2)i=parseInt(a.substr(n,2),16)^r,e+=String.fromCharCode(i);e=document.createTextNode(e),c.parentNode.replaceChild(e,c)}}}catch(u){}}();/* ]]&gt; */&lt;/script&gt;&quot;.\n\nFacebook Fan Page:  \nSearch P2PDL on FB","torrent":{"xt":"urn:btih:4ee618aaf1907a044566d7f3ac5c03d59ee334e6","amp;dn":"The+Wizards+Return+Alex+vs.+Alex+2013+DVDRip+x264+AAC+-+ViZNU+%5BP","amp;tr":["udp%3A%2F%2Ftracker.openbittorrent.com%3A80","udp%3A%2F%2Fopen.demonii.com%3A1337","udp%3A%2F%2Ftracker.coppersurfer.tk%3A6969","udp%3A%2F%2Fexodus.desync.com%3A6969"],"infoHash":"4ee618aaf1907a044566d7f3ac5c03d59ee334e6","infoHashBuffer":{"type":"Buffer","data":[78,230,24,170,241,144,122,4,69,102,215,243,172,92,3,213,158,227,52,230]},"announce":[],"urlList":[]}}